HIERARCHY
ROOT Hips
{
	OFFSET 0.00000 0.00000 0.00000
	CHANNELS 6 Xposition Yposition Zposition Yrotation Zrotation Xrotation 
	JOINT Lumbar
	{
		OFFSET 0 0 0
		CHANNELS 3 Zrotation Xrotation Yrotation
		JOINT Neck
		{
			OFFSET 0.00 0.2701 0.00
			CHANNELS 3 Zrotation Xrotation Yrotation
			End Site
			{
				OFFSET 0.00 0.1379 0.00
			}
		}
		JOINT RightShoulder
		{
			OFFSET 0.0119 0.2289 0.1181
			CHANNELS 3 Zrotation Xrotation Yrotation
			JOINT RightElbow
			{
				OFFSET 0.00 -0.1475 0.00
				CHANNELS 2 Zrotation Yrotation
				JOINT RightWrist
				{
					OFFSET 0.00 -0.1605 0.00
					CHANNELS 2 Zrotation Xrotation
					End Site
					{
						OFFSET 0.0040 -0.1068 0.0006
					}
				}
			}
		}
		JOINT LeftShoulder
		{
			OFFSET 0.0119 0.2289 -0.1181
			CHANNELS 3 Zrotation Xrotation Yrotation
			JOINT LeftElbow
			{
				OFFSET 0.00 -0.1475 0.00
				CHANNELS 2 Zrotation Yrotation
				JOINT LeftWrist
				{
					OFFSET 0.00 -0.1605 0.00
					CHANNELS 2 Zrotation Xrotation
					End Site
					{
						OFFSET 0.0040 -0.1068 -0.0006
					}
				}
			}
		}
	}
	JOINT RightHip
	{
		OFFSET 0.0316 -0.0424 0.0458
		CHANNELS 3 Zrotation Xrotation Yrotation
		JOINT RightKnee
		{
			OFFSET 0.00 -0.2438 0.00
			CHANNELS 1 Zrotation
			JOINT RightAnkle
			{
				OFFSET 0.00 -0.2449 0.00
				CHANNELS 3 Zrotation Xrotation Yrotation
				End Site
				{
					OFFSET 0.1237 -0.0542 0.0051
				}
			}
		}
	}
	JOINT LeftHip
	{
		OFFSET 0.0316 -0.0424 -0.0458
		CHANNELS 3 Zrotation Xrotation Yrotation
		JOINT LeftKnee
		{
			OFFSET 0.00 -0.2438 0.00
			CHANNELS 1 Zrotation
			JOINT LeftAnkle
			{
				OFFSET 0.00 -0.2449 0.00
				CHANNELS 3 Zrotation Xrotation Yrotation
				End Site
				{
					OFFSET 0.1237 -0.0542 -0.0051
				}
			}
		}
	}
}
MOTION
Frames: 33
Frame Time: 0.02
-0.06841 0.00549 0.2489 -221.34666 -32.99813 -4.47634 42.9954 0.04753 3.54487 3.24972 17.52347 -0.83079 93.19103 -57.26087 0.78057 31.78041 62.9642 27.39279 -5.95389 -33.70694 12.77743 15.97414 40.16449 -105.77513 21.88693 -0.10876 47.15097 -10.25345 -7.50807 -24.90061 -10.57609 -3.63048 -2.72989 36.02032 1.67186 4.0524 -24.41636 -6.63827 2.79382 2.0788
-0.06384 0.00645 0.24804 -222.75719 -33.82274 -5.60371 42.79535 -0.11133 1.84828 2.97771 18.49645 -0.83079 86.21398 -56.22095 -3.53074 37.72554 63.47225 26.56138 -5.86155 -34.76617 12.94653 15.44679 41.48385 -108.34675 22.33396 -0.51675 48.36996 -9.40495 -7.7206 -24.86349 -10.49101 -3.33742 -2.56265 37.37124 2.57679 2.52983 -24.49913 -6.69633 3.04358 2.2186
-0.05928 0.00718 0.24718 -224.18411 -34.66361 -6.71126 42.76629 -0.24713 0.13624 2.44806 19.29054 -0.83079 78.56877 -54.58985 -8.93582 44.37676 65.02111 25.25646 -5.79787 -35.60267 13.11465 15.33295 42.47308 -112.41622 23.21357 -1.13352 49.55746 -8.64292 -7.90368 -24.90455 -10.32356 -3.0327 -2.38605 38.72953 3.46815 1.03089 -24.60302 -6.76868 3.28947 2.35776
-0.05475 0.00801 0.24628 -225.58472 -35.47835 -7.81086 42.66417 -0.39433 -1.55168 2.02063 20.143 -0.83079 71.26349 -53.22142 -13.78589 50.69371 66.0851 24.17435 -5.71486 -36.52028 13.30037 15.01317 43.6048 -115.70485 23.87149 -1.64181 50.71857 -7.85487 -8.10444 -24.92079 -10.1941 -2.74741 -2.22159 40.05774 4.36585 -0.42251 -24.69752 -6.83198 3.52917 2.49271
-0.05004 0.00887 0.24552 -227.06873 -36.37493 -8.99036 42.53797 -0.53896 -3.32389 1.6566 21.10171 -0.83079 63.76486 -51.87998 -18.9078 57.10343 67.18366 23.06163 -5.65097 -37.53378 13.42006 14.74121 44.78158 -119.41884 24.63474 -2.20855 52.05664 -7.00383 -8.28399 -24.89444 -10.06255 -2.40167 -2.0234 41.50508 5.26945 -2.12401 -24.7923 -6.9055 3.80344 2.64714
-0.04573 0.00961 0.24447 -228.38163 -37.10308 -9.99446 42.50474 -0.68343 -4.91836 1.09888 21.79223 -0.83079 56.53023 -50.34257 -23.71012 63.46594 68.46146 21.90229 -5.55703 -38.29051 13.67407 14.48025 45.78256 -122.58732 25.27654 -2.70067 53.01492 -6.30726 -8.49865 -24.97385 -9.9165 -2.1793 -1.89341 42.70223 6.15314 -3.30505 -24.89134 -6.96166 4.00522 2.76114
-0.0425 0.01011 0.24269 -229.2161 -37.37145 -10.53192 42.68069 -0.82739 -6.03247 0.07221 21.79464 -0.83079 50.13528 -48.39253 -27.39398 69.61865 70.00389 20.69747 -5.37184 -38.39102 14.30459 14.13138 46.35882 -124.06544 25.54162 -2.96212 52.95307 -6.01595 -8.85934 -25.33173 -9.74029 -2.30127 -1.954 43.22329 7.00826 -2.97825 -24.99362 -6.96244 3.9974 2.75761
-0.03968 0.0105 0.24061 -229.8778 -37.46764 -10.88989 42.94599 -0.97276 -6.96273 -1.14077 21.53016 -0.83079 44.04584 -46.26835 -30.70829 75.67667 71.68902 19.46793 -5.15665 -38.23929 15.06764 13.78751 46.77062 -124.91549 25.6601 -3.13721 52.50544 -5.8785 -9.25063 -25.79145 -9.55394 -2.54758 -2.08349 43.48827 7.83914 -2.13858 -25.09989 -6.94597 3.91829 2.71431
-0.03669 0.01092 0.23864 -230.61906 -37.63649 -11.32091 43.1746 -1.12098 -7.96662 -2.27079 21.38136 -0.83079 37.85373 -44.23386 -34.16861 81.71477 73.29505 18.26993 -4.95712 -38.20289 15.76673 13.45478 47.26942 -125.92941 25.80217 -3.33385 52.22069 -5.67117 -9.60008 -26.20131 -9.37891 -2.7368 -2.18166 43.85933 8.66493 -1.58355 -25.20633 -6.94012 3.87853 2.69317
-0.03367 0.0114 0.23679 -231.35577 -37.83006 -11.78834 43.3923 -1.25376 -9.01418 -3.40384 21.25149 -0.83079 31.47708 -42.13376 -37.76348 88.0498 74.99617 16.96809 -4.75009 -38.15701 16.48512 13.07428 47.70748 -127.48917 26.13397 -3.60971 51.98873 -5.46498 -10.06191 -26.63134 -9.17316 -2.92888 -2.28001 44.2754 9.55711 -0.81737 -25.30511 -6.92331 3.80991 2.65516
-0.03079 0.01173 0.2346 -232.06168 -37.93036 -12.13627 43.65206 -1.41924 -9.92559 -4.56987 21.01945 -0.83079 25.57607 -40.1373 -40.9718 93.72704 76.52097 15.88493 -4.55098 -38.07253 17.19042 12.79554 48.23439 -127.76772 26.03885 -3.70076 51.55396 -5.29383 -10.30285 -27.03964 -9.02948 -3.14366 -2.39387 44.53528 10.30695 -0.36059 -25.42056 -6.92471 3.78377 2.64234
-0.02824 0.01168 0.23162 -232.71675 -37.82059 -12.20835 44.00277 -1.67519 -10.51586 -5.79325 20.58491 -0.83079 20.83784 -38.46852 -43.23028 97.6684 77.50673 15.39539 -4.3828 -37.95431 17.86326 12.74233 49.071 -124.4511 24.72581 -3.27301 50.6681 -5.16464 -9.87838 -27.3876 -9.06499 -3.39968 -2.53897 44.43868 10.65565 -0.96033 -25.5807 -6.98369 3.89899 2.71319
-0.02581 0.01147 0.22829 -233.34857 -37.62177 -12.16433 44.39248 -1.96386 -10.97318 -7.03938 20.05489 -0.83079 16.58778 -36.91436 -45.10041 100.93535 78.30732 15.13179 -4.22296 -37.80468 18.51106 12.80009 49.99901 -119.90231 23.00113 -2.66729 49.58939 -5.06803 -9.239 -27.70545 -9.16269 -3.67268 -2.69638 44.1912 10.86428 -1.87591 -25.75744 -7.0611 4.05831 2.81002
-0.0233 0.01132 0.22508 -233.99579 -37.46013 -12.16713 44.76572 -2.23752 -11.48525 -8.26662 19.56015 -0.83079 12.16444 -35.31005 -47.12673 104.47152 79.19981 14.77834 -4.05835 -37.66356 19.14729 12.83981 50.87197 -116.04384 21.51048 -2.16067 48.58897 -4.96757 -8.73047 -28.02017 -9.22888 -3.93204 -2.84474 44.00507 11.14667 -2.59543 -25.92671 -7.12777 4.193 2.89198
-0.02091 0.0112 0.22202 -234.61512 -37.30646 -12.18962 45.13698 -2.51242 -12.01624 -9.53861 19.09052 -0.83079 7.53644 -33.68655 -49.2324 108.16772 80.0686 14.37123 -3.89778 -37.53898 19.88717 12.74068 51.79931 -111.5991 19.81221 -1.57192 47.61249 -4.827 -8.08564 -28.40831 -9.30851 -4.22061 -3.01001 43.84137 11.38686 -3.51468 -26.09579 -7.20316 4.34416 2.98517
-0.01829 0.01099 0.21857 -235.29109 -37.11719 -12.14479 45.52034 -2.7917 -12.47693 -10.71783 18.54908 -0.83079 3.45907 -32.13829 -51.07793 111.36468 80.93657 14.12783 -3.72996 -37.37438 20.40082 12.96019 52.63315 -108.10966 18.45619 -1.11601 46.54797 -4.77477 -7.66983 -28.63654 -9.37491 -4.4509 -3.14216 43.59735 11.68038 -4.10476 -26.2692 -7.26582 4.47294 3.06207
-0.01512 0.01058 0.2142 -236.11442 -36.85274 -11.95254 45.92718 -3.08159 -12.79115 -11.65477 17.83712 -0.83079 0.6793 -30.72296 -52.36123 113.40541 81.88226 14.30036 -3.55149 -37.12125 20.31971 14.00189 53.22308 -107.38369 18.09212 -1.04303 45.26784 -4.96494 -7.96881 -28.41717 -9.39055 -4.514 -3.17878 43.17857 12.16997 -3.66615 -26.45014 -7.28195 4.52483 3.08411
-0.01169 0.01007 0.20944 -236.99924 -36.55602 -11.69563 46.34395 -3.37333 -13.03717 -12.4926 17.05682 -0.83079 -1.54427 -29.3892 -53.3856 114.95652 82.82683 14.62646 -3.36416 -36.82797 20.00795 15.36399 53.70991 -107.68612 18.09385 -1.1137 43.91183 -5.24034 -8.50027 -28.04008 -9.39022 -4.51753 -3.18144 42.68337 12.71581 -2.89544 -26.63491 -7.28609 4.55376 3.0897
-0.00833 0.00958 0.20484 -237.86634 -36.27424 -11.46257 46.75661 -3.6602 -13.30558 -13.36254 16.30616 -0.83079 -3.95746 -28.0496 -54.49133 116.69481 83.74756 14.86987 -3.17261 -36.54446 19.78385 16.60203 54.22064 -107.65047 17.96866 -1.13923 42.60489 -5.4725 -8.90522 -27.74323 -9.39706 -4.54919 -3.20009 42.21805 13.22609 -2.30779 -26.81813 -7.30017 4.59644 3.10538
-0.00521 0.00918 0.20031 -238.68904 -35.98865 -11.24853 47.17109 -3.96606 -13.60613 -14.28948 15.5576 -0.83079 -6.62438 -26.58154 -55.74021 118.55932 84.76223 15.17559 -3.01319 -36.29373 19.62613 17.76155 54.83087 -107.07223 17.67773 -1.08059 41.22762 -5.72735 -9.38954 -27.4085 -9.40796 -4.57741 -3.21712 41.76855 13.77234 -1.59699 -27.00114 -7.29554 4.62684 3.11103
-0.00151 0.00857 0.19554 -239.6195 -35.70383 -10.9813 47.58097 -4.23132 -13.82457 -15.07195 14.7902 -0.83079 -8.6317 -25.39956 -56.62999 120.05263 85.58651 15.38506 -2.78833 -35.96785 19.28233 19.14852 55.20878 -107.82602 17.80582 -1.22473 39.98362 -5.95166 -9.76807 -27.11654 -9.40391 -4.59797 -3.22894 41.26901 14.26055 -1.05751 -27.18528 -7.32727 4.67653 3.13317
0.00356 0.00746 0.19016 -240.82915 -35.43574 -10.58185 47.99728 -4.3928 -13.83997 -15.49502 13.98484 -0.83079 -9.00205 -24.98234 -56.63233 120.65035 85.85631 15.28948 -2.35318 -35.42444 18.42277 21.1784 54.96723 -112.5257 19.16521 -1.97327 39.10898 -6.09621 -9.78532 -26.97337 -9.37874 -4.61558 -3.23756 40.66055 14.56072 -1.09296 -27.37263 -7.45853 4.78733 3.20623
0.00922 0.00613 0.18455 -242.14539 -35.16886 -10.13219 48.40393 -4.51147 -13.77443 -15.77298 13.16432 -0.83079 -8.72138 -24.85052 -56.27666 120.89284 85.93913 15.09044 -1.85815 -34.80977 17.39409 23.40935 54.49713 -118.44716 20.90748 -2.90811 38.37556 -6.20184 -9.69139 -26.88054 -9.33604 -4.62678 -3.24153 40.00426 14.80378 -1.30817 -27.56159 -7.62768 4.91767 3.29607
0.01472 0.00489 0.17905 -243.41577 -34.89734 -9.70653 48.80125 -4.64395 -13.74216 -16.10738 12.35248 -0.83079 -8.70944 -24.59112 -56.06004 121.29525 86.12971 14.9393 -1.4116 -34.24206 16.48225 25.485 54.13132 -123.46554 22.3662 -3.70488 37.5895 -6.30886 -9.65761 -26.76963 -9.29001 -4.63843 -3.24565 39.3624 15.08296 -1.42447 -27.74792 -7.78155 5.03742 3.37723
0.0198 0.00371 0.17352 -244.6794 -34.64144 -9.27242 49.25876 -4.80074 -13.72252 -16.47901 11.5289 -0.83079 -8.79181 -24.32621 -55.93365 121.68717 86.23106 14.79183 -0.87585 -33.6151 15.39688 27.83684 53.75379 -129.95693 24.2904 -4.72726 36.75098 -6.48903 -9.59145 -26.63187 -9.28989 -4.65833 -3.25679 38.74429 15.32142 -1.59695 -27.93879 -7.92573 5.16376 3.4623
0.02588 0.00234 0.16801 -245.97907 -34.3543 -8.84625 49.58608 -4.89621 -13.6579 -16.73924 10.72923 -0.83079 -8.53108 -24.13877 -55.53815 122.02227 86.46494 14.60774 -0.51067 -33.0905 14.63164 29.66317 53.35576 -133.69548 25.34323 -5.3281 36.05748 -6.50478 -9.56298 -26.56538 -9.19177 -4.66038 -3.25274 38.07179 15.63003 -1.70582 -28.12506 -8.10062 5.2811 3.5434
0.03452 0.00051 0.16252 -247.37233 -33.97617 -8.44221 49.57587 -4.83692 -13.49191 -16.73309 9.98149 -0.83079 -7.47919 -24.10161 -54.48499 122.29746 87.19163 14.3684 -0.64006 -32.90556 14.82963 29.93041 52.88942 -129.19808 23.79161 -4.66694 35.72018 -6.09092 -9.66828 -26.67186 -8.81394 -4.61433 -3.20701 37.21736 16.14803 -1.53942 -28.26185 -8.33798 5.37038 3.60947
0.04414 -0.00149 0.15708 -248.79326 -33.56765 -8.05006 49.43082 -4.71664 -13.28287 -16.61902 9.26206 -0.83079 -6.10757 -24.13126 -53.17523 122.52863 88.04577 14.09206 -0.94107 -32.81855 15.35033 29.66866 52.42411 -121.94435 21.36719 -3.58397 35.52596 -5.51045 -9.81399 -26.85056 -8.34076 -4.55088 -3.14646 36.31997 16.7369 -1.31363 -28.40231 -8.60657 5.44963 3.67093
0.05333 -0.0034 0.1517 -250.18904 -33.176 -7.66129 49.33513 -4.62159 -13.09236 -16.5514 8.54161 -0.83079 -4.88756 -24.12545 -51.98554 122.77558 88.78491 13.81719 -1.15834 -32.66141 15.69884 29.68924 52.00238 -116.16919 19.40968 -2.72807 35.27327 -4.9951 -9.93808 -27.00546 -7.91999 -4.49595 -3.09342 35.46912 17.29334 -1.15469 -28.56297 -8.87053 5.53273 3.73473
0.06247 -0.0054 0.14597 -251.64513 -32.77111 -7.23543 49.29122 -4.53552 -12.90483 -16.49056 7.77035 -0.83079 -3.61914 -24.14997 -50.76802 123.02666 89.74725 13.5998 -1.39979 -32.6114 16.14661 29.55047 51.38405 -109.48894 17.17074 -1.73037 34.99864 -4.5201 -10.07114 -27.12687 -7.45992 -4.43825 -3.03695 34.49587 17.85334 -0.8385 -28.62496 -9.0989 5.62001 3.79858
0.07194 -0.00723 0.14099 -252.97645 -32.38703 -6.88807 49.10534 -4.41685 -12.7001 -16.39066 7.11216 -0.83079 -2.38259 -24.12495 -49.55295 123.26466 90.2915 13.25998 -1.62988 -32.36059 16.4696 29.60225 51.18171 -104.01635 15.30367 -0.92418 34.80078 -3.92587 -10.19784 -27.33083 -7.05975 -4.3822 -2.98415 33.77627 18.41776 -0.82723 -28.90131 -9.40396 5.69527 3.86034
0.08221 -0.00865 0.13796 -253.99291 -32.06439 -6.77408 48.57981 -4.22274 -12.47409 -16.22079 6.75704 -0.83079 -1.32972 -23.93282 -48.40171 123.46812 89.52757 12.55051 -1.80935 -31.54844 16.34251 30.42092 52.1029 -102.60505 14.69213 -0.75941 34.78943 -3.01031 -10.28436 -27.77714 -6.8446 -4.33598 -2.94532 33.69614 19.02515 -1.72244 -29.69643 -9.95026 5.7455 3.92309
0.09274 -0.00989 0.1357 -254.8757 -31.7647 -6.7352 47.91291 -3.99808 -12.22948 -16.01409 6.51528 -0.83079 -0.32018 -23.6899 -47.26357 123.66317 88.36057 11.72709 -1.96798 -30.5287 16.08376 31.42845 53.4495 -102.48835 14.48026 -0.79924 34.84844 -1.98712 -10.36491 -28.29794 -6.69392 -4.29195 -2.91073 33.88537 19.62514 -2.9142 -30.71785 -10.56541 5.78277 3.98272
